<?xml version="1.0" encoding="UTF-8" standalone="no"?><!DOCTYPE svg PUBLIC "-//W3C//DTD SVG 1.1//EN" "http://www.w3.org/Graphics/SVG/1.1/DTD/svg11.dtd"><svg width="100%" height="100%" viewBox="0 0 71 90" version="1.1" xmlns="http://www.w3.org/2000/svg" xmlns:xlink="http://www.w3.org/1999/xlink" xml:space="preserve" xmlns:serif="http://www.serif.com/" style="fill-rule:evenodd;clip-rule:evenodd;stroke-linecap:round;stroke-linejoin:round;stroke-miterlimit:1.5;"><g><g><path d="M7.234,68.015c0,-9.077 -0.514,-37.32 -0.514,-38.519c0,-14.764 12.497,-26.751 30.226,-26.751c17.728,0 30.225,11.987 30.225,26.751c0,0.086 1.37,22.945 -0.934,32.893c-2.21,9.543 -16.509,23.641 -16.509,23.641l-1.245,-10.566l-23.653,11.671l3.149,-11.671l-25.234,11.671c0,0 4.489,-11.587 4.489,-19.12Z" style="stroke:#ebebeb;stroke-width:5.49px;"/><path d="M39.582,24.137c0.623,0.024 2.605,0.47 3.592,2.157c2.824,4.825 1.493,11.806 -0.935,13.933c-1.564,1.37 -4.243,1.34 -5.804,-0.272c-1.891,-1.953 -1.494,-3.413 -1.602,-5.066c-0.216,-3.317 -0.554,-6.972 1.47,-9.314c0.64,-0.74 1.952,-1.261 2.033,-1.284c0.509,-0.144 0.804,-0.159 1.246,-0.154Z" style="fill:#fff;fill-rule:nonzero;stroke:#474b5b;stroke-width:0.24px;stroke-linecap:butt;stroke-miterlimit:1.41421;"/><ellipse cx="55.491" cy="32.674" rx="0.598" ry="4.442" style="stroke:#ebebeb;stroke-width:0.24px;stroke-linecap:butt;stroke-miterlimit:1.41421;"/><path d="M55.594,24.116c4.64,0.174 5.843,8.663 4.014,14.02c-0.652,1.912 -2.628,3.352 -4.724,3.054c-3.806,-0.54 -4.635,-6.71 -3.897,-12.204c0.274,-2.038 1.315,-4.239 3.563,-4.765c0.344,-0.08 0.693,-0.11 1.044,-0.105Z" style="fill:#fff;fill-rule:nonzero;stroke:#474b5b;stroke-width:0.24px;stroke-linecap:butt;stroke-miterlimit:1.41421;"/></g></g></svg>