<?xml version="1.0" encoding="UTF-8" standalone="no"?><!DOCTYPE svg PUBLIC "-//W3C//DTD SVG 1.1//EN" "http://www.w3.org/Graphics/SVG/1.1/DTD/svg11.dtd"><svg width="100%" height="100%" viewBox="0 0 86 97" version="1.1" xmlns="http://www.w3.org/2000/svg" xmlns:xlink="http://www.w3.org/1999/xlink" xml:space="preserve" xmlns:serif="http://www.serif.com/" style="fill-rule:evenodd;clip-rule:evenodd;stroke-linecap:round;stroke-linejoin:round;stroke-miterlimit:1.5;"><g><path d="M4.198,86.783c0,-8.918 -1.739,-32.025 19.757,-33.087c21.951,-1.084 20.356,23.855 20.356,32.773" style="stroke:#fff;stroke-width:4px;"/><path d="M42.696,85.584c0.102,-36.737 -1.858,-58.734 20.194,-58.918c24.402,-0.202 20.489,24.367 20.809,57.5c0.002,0.243 -2.624,-1.638 -5.525,-1.979c-1.521,-0.178 -3.226,1.616 -4.36,1.035c-0.295,-0.152 -1.771,-1.082 -2.986,-1.674c-0.873,-0.426 -5.886,2.518 -5.955,2.856" style="stroke:#fff;stroke-width:3.58px;"/><circle cx="25.454" cy="42.334" r="14.45" style="stroke:#fff;stroke-width:4px;"/><path d="M24.734,94.262c0,-8.918 -1.739,-32.025 19.757,-33.087c21.951,-1.084 20.356,23.855 20.356,32.773" style="stroke:#fff;stroke-width:4px;"/><circle cx="44.337" cy="52.464" r="14.45" style="stroke:#fff;stroke-width:4px;"/><path d="M40.295,57.591l7.916,0" style="fill:none;stroke:#fff;stroke-width:2px;"/><path d="M40.672,61.141l-0.695,-3.051l1.389,0l-0.694,3.051Z" style="fill:#fff;stroke:#fff;stroke-width:0.92px;"/><path d="M47.834,61.141l-0.694,-3.051l1.389,0l-0.695,3.051Z" style="fill:#fff;stroke:#fff;stroke-width:0.92px;"/><g><path d="M22.784,25.838c11.802,-1.332 21.657,0.006 21.994,2.986c0.336,2.981 -8.973,6.481 -20.776,7.813c-11.802,1.331 -21.657,-0.007 -21.993,-2.987c-0.336,-2.98 8.973,-6.481 20.775,-7.812Z" style="stroke:#fff;stroke-width:4px;"/><path d="M25.607,2l0.455,13.509l7.206,12.307c-5.434,3.215 -11.952,4.255 -19.749,2.732l3.73,-14.325l8.358,-14.223Z" style="stroke:#fff;stroke-width:4px;"/></g><ellipse cx="68.444" cy="50.197" rx="2.794" ry="4.089" style="fill:#fff;stroke:#000;stroke-width:1px;"/><ellipse cx="76.781" cy="49.353" rx="2.794" ry="4.089" style="fill:#fff;stroke:#000;stroke-width:1px;"/></g></svg>