<?xml version="1.0" encoding="UTF-8" standalone="no"?><!DOCTYPE svg PUBLIC "-//W3C//DTD SVG 1.1//EN" "http://www.w3.org/Graphics/SVG/1.1/DTD/svg11.dtd"><svg width="100%" height="100%" viewBox="0 0 85 94" version="1.1" xmlns="http://www.w3.org/2000/svg" xmlns:xlink="http://www.w3.org/1999/xlink" xml:space="preserve" xmlns:serif="http://www.serif.com/" style="fill-rule:evenodd;clip-rule:evenodd;stroke-linecap:round;stroke-linejoin:round;stroke-miterlimit:1.5;"><g><path d="M2.831,84.037c0,-8.918 -1.739,-32.026 19.757,-33.087c21.951,-1.084 20.356,23.855 20.356,32.773" style="stroke:#fff;stroke-width:4px;"/><path d="M41.329,82.838c0.103,-36.737 -1.858,-58.734 20.194,-58.918c24.402,-0.202 20.49,24.366 20.809,57.5c0.003,0.243 -2.624,-1.638 -5.524,-1.979c-1.522,-0.178 -3.227,1.616 -4.361,1.034c-0.295,-0.151 -1.77,-1.081 -2.985,-1.673c-0.873,-0.426 -5.887,2.518 -5.956,2.856" style="stroke:#fff;stroke-width:3.58px;"/><circle cx="24.087" cy="39.588" r="14.45" style="stroke:#fff;stroke-width:4px;"/><path d="M23.367,91.516c0,-8.918 -1.739,-32.026 19.757,-33.087c21.951,-1.084 20.356,23.855 20.356,32.773" style="stroke:#fff;stroke-width:4px;"/><circle cx="42.97" cy="49.718" r="14.45" style="stroke:#fff;stroke-width:4px;"/><path d="M38.929,54.845l7.915,0" style="fill:none;stroke:#fff;stroke-width:0.7px;"/><path d="M39.688,56.717l-0.759,-1.872l1.519,0l-0.76,1.872Z" style="fill:#fff;stroke:#fff;stroke-width:0.7px;"/><path d="M46.084,56.717l-0.76,-1.872l1.52,0l-0.76,1.872Z" style="fill:#fff;stroke:#fff;stroke-width:0.7px;"/><g><path d="M21.417,23.091c11.803,-1.331 21.658,0.007 21.994,2.987c0.336,2.98 -8.973,6.481 -20.775,7.813c-11.803,1.331 -21.658,-0.007 -21.994,-2.987c-0.336,-2.98 8.973,-6.481 20.775,-7.813Z" style="stroke:#fff;stroke-width:1.27px;"/><path d="M24.311,0.75l0.455,13.509l7.205,12.307c-5.433,3.215 -11.951,4.255 -19.748,2.732l3.73,-14.325l8.358,-14.223Z" style="stroke:#fff;stroke-width:1.5px;"/></g><ellipse cx="67.088" cy="46.105" rx="1.973" ry="3.569" style="fill:#fff;stroke:#000;stroke-width:0.8px;"/><ellipse cx="75.021" cy="45.285" rx="1.973" ry="3.569" style="fill:#fff;stroke:#000;stroke-width:0.8px;"/></g></svg>