<?xml version="1.0" standalone="no"?><!DOCTYPE svg PUBLIC "-//W3C//DTD SVG 1.1//EN" "http://www.w3.org/Graphics/SVG/1.1/DTD/svg11.dtd"><svg width="100%" height="100%" viewBox="0 0 612 360" version="1.1" xmlns="http://www.w3.org/2000/svg" xmlns:xlink="http://www.w3.org/1999/xlink" xml:space="preserve" style="fill-rule:evenodd;clip-rule:evenodd;stroke-linejoin:round;stroke-miterlimit:1.41421;"><g><path d="M509.082,288.398l-395.435,0l0,-184.875l16.745,0l0,84.256l16.741,0l0,-84.256l16.744,0l0,151.812l-16.744,0l0,-50.665l-16.741,0l0,67.098l378.69,0l0,16.63Z" style="fill:#FF7E58;fill-rule:nonzero;"/><path d="M214.293,120.412l-16.741,0l0,67.367l16.741,0l0,-67.367ZM231.037,107.698l0,147.637l-16.744,0l0,-50.665l-16.741,0l0,50.665l-16.744,0l0,-147.637l4.141,-4.175l41.76,0l4.328,4.175Z" style="fill:#FF7E58;fill-rule:nonzero;"/><path d="M281.264,187.966l0,-67.363l-16.741,0l0,118.034l16.741,0l0,-33.783l16.742,0l0,46.304l-4.326,4.366l-41.76,0l-4.141,-4.366l0,-143.267l4.141,-4.176l41.76,0l4.326,4.176l0,80.075l-16.742,0Z" style="fill:#FF7E58;fill-rule:nonzero;"/><path d="M364.784,204.67l0,50.665l-16.744,0l0,-50.665l-16.738,0l0,50.665l-16.744,0l0,-151.812l16.744,0l0,84.256l16.738,0l0,-84.256l16.744,0l0,84.256l-8.461,8.537l8.461,8.354Z" style="fill:#FF7E58;fill-rule:nonzero;"/><path d="M415.201,170.892l0,-50.48l-16.739,0l0,67.367l29.157,0l4.326,4.364l0,59.015l-4.326,4.177l-41.76,0l-4.141,-4.177l0,-29.6l16.744,0l0,16.887l16.739,0l0,-33.775l-29.342,0l-4.141,-4.177l0,-92.795l4.141,-4.175l41.76,0l4.326,4.164l0,63.205l-16.744,0Z" style="fill:#FF7E58;fill-rule:nonzero;"/><path d="M102.1,71.074l396.004,0.205l0.812,179.879l-4.331,4.177l-41.755,0l-4.141,-4.177l0,-147.635l16.745,0l0,134.922l16.738,0l0,-151.11l-380.072,0l0,-16.261Z" style="fill:#FF7E58;fill-rule:nonzero;"/><path d="M77.847,66.635c-7.26,0 -13.166,5.906 -13.166,13.166c0,7.26 5.906,13.166 13.166,13.166c7.26,0 13.166,-5.906 13.166,-13.166c0,-7.26 -5.906,-13.166 -13.166,-13.166ZM77.847,109.597c-16.429,0 -29.797,-13.365 -29.797,-29.796c0,-16.429 13.368,-29.796 29.797,-29.796c16.43,0 29.797,13.367 29.797,29.796c0,16.431 -13.367,29.796 -29.797,29.796Z" style="fill:#FF7E58;fill-rule:nonzero;"/><path d="M534.152,267.034c-7.259,0 -13.165,5.906 -13.165,13.165c0,7.26 5.906,13.166 13.165,13.166c7.26,0 13.166,-5.906 13.166,-13.166c0,-7.259 -5.906,-13.165 -13.166,-13.165ZM534.152,309.995c-16.429,0 -29.796,-13.365 -29.796,-29.796c0,-16.429 13.367,-29.796 29.796,-29.796c16.431,0 29.797,13.367 29.797,29.796c0,16.431 -13.366,29.796 -29.797,29.796Z" style="fill:#FF7E58;fill-rule:nonzero;"/></g></svg>