<?xml version="1.0" encoding="UTF-8" standalone="no"?><!DOCTYPE svg PUBLIC "-//W3C//DTD SVG 1.1//EN" "http://www.w3.org/Graphics/SVG/1.1/DTD/svg11.dtd"><svg width="100%" height="100%" viewBox="0 0 570 127" version="1.1" xmlns="http://www.w3.org/2000/svg" xmlns:xlink="http://www.w3.org/1999/xlink" xml:space="preserve" xmlns:serif="http://www.serif.com/" style="fill-rule:evenodd;clip-rule:evenodd;stroke-linejoin:round;stroke-miterlimit:1.41421;"><path id="Cloud-1" serif:id="Cloud 1" d="M548.668,126.092l-527.356,0c-11.509,0 -20.852,-9.343 -20.852,-20.851c0,-11.509 9.343,-20.852 20.852,-20.852l65.057,0l0,-0.497c9.351,-2.033 16.369,-10.381 16.369,-20.355c0,-9.974 -7.018,-18.322 -16.369,-20.355l0,-0.497l-31.906,0c-11.509,0 -20.852,-9.344 -20.852,-20.852c0,-11.508 9.343,-20.852 20.852,-20.852l293.605,0c11.508,0 20.852,9.344 20.852,20.852c0,11.476 -9.291,20.799 -20.852,20.852l-28.199,0l0,0.303c-9.892,1.607 -17.443,10.203 -17.443,20.549c0,10.345 7.551,18.941 17.443,20.549l0,0.303l228.799,0c11.561,0.053 20.852,9.376 20.852,20.852c0,11.476 -9.291,20.799 -20.852,20.851Z" style="fill:#91939d;fill-opacity:0.604929;"/></svg>