<?xml version="1.0" encoding="UTF-8" standalone="no"?><!DOCTYPE svg PUBLIC "-//W3C//DTD SVG 1.1//EN" "http://www.w3.org/Graphics/SVG/1.1/DTD/svg11.dtd"><svg width="100%" height="100%" viewBox="0 0 491 97" version="1.1" xmlns="http://www.w3.org/2000/svg" xmlns:xlink="http://www.w3.org/1999/xlink" xml:space="preserve" xmlns:serif="http://www.serif.com/" style="fill-rule:evenodd;clip-rule:evenodd;stroke-linejoin:round;stroke-miterlimit:1.41421;"><path id="Cloud-2" serif:id="Cloud 2" d="M474.434,96.655l-457.618,0c-8.816,0 -15.974,-7.158 -15.974,-15.974c0,-8.817 7.158,-15.974 15.974,-15.974l189.839,0l0,-0.381c7.163,-1.558 12.539,-7.953 12.539,-15.594c0,-7.64 -5.376,-14.035 -12.539,-15.593l0,-0.381l-24.443,0c-8.816,0 -15.974,-7.157 -15.974,-15.974c0,-8.816 7.158,-15.974 15.974,-15.974l224.923,0c8.816,0 15.974,7.158 15.974,15.974c0,8.792 -7.117,15.934 -15.974,15.974l-21.602,0l0,0.232c-7.579,1.232 -13.363,7.817 -13.363,15.742c0,7.926 5.784,14.511 13.363,15.742l0,0.233l88.901,0c8.857,0.04 15.974,7.182 15.974,15.974c0,8.791 -7.117,15.933 -15.974,15.974Z" style="fill:#1c1e24;fill-opacity:0.2;"/></svg>