<?xml version="1.0" encoding="UTF-8" standalone="no"?><!DOCTYPE svg PUBLIC "-//W3C//DTD SVG 1.1//EN" "http://www.w3.org/Graphics/SVG/1.1/DTD/svg11.dtd"><svg width="100%" height="100%" viewBox="0 0 197 64" version="1.1" xmlns="http://www.w3.org/2000/svg" xmlns:xlink="http://www.w3.org/1999/xlink" xml:space="preserve" xmlns:serif="http://www.serif.com/" style="fill-rule:evenodd;clip-rule:evenodd;stroke-linejoin:round;stroke-miterlimit:1.41421;"><path id="Cloud-3" serif:id="Cloud 3" d="M185.651,63.444l-174.723,0c-5.788,0 -10.488,-4.7 -10.488,-10.489c0,-5.789 4.7,-10.489 10.488,-10.489l32.725,0l0,-0.25c4.703,-1.022 8.233,-5.221 8.233,-10.238c0,-5.017 -3.53,-9.216 -8.233,-10.239l0,-0.25l-16.049,0c-5.789,0 -10.489,-4.7 -10.489,-10.489c0,-5.789 4.7,-10.488 10.489,-10.488l117.505,0c5.789,0 10.488,4.699 10.488,10.488c0,5.773 -4.673,10.462 -10.488,10.489l-14.184,0l0,0.152c-4.976,0.809 -8.774,5.133 -8.774,10.337c0,5.204 3.798,9.527 8.774,10.336l0,0.152l54.726,0c5.816,0.027 10.489,4.716 10.489,10.489c0,5.773 -4.673,10.462 -10.489,10.489Z" style="fill:#6c6f7c;"/></svg>