<svg xmlns="http://www.w3.org/2000/svg" xmlns:serif="http://www.serif.com/" fill-rule="evenodd" stroke-linejoin="round" stroke-miterlimit="1.5" clip-rule="evenodd" viewBox="0 0 510 409">
  <g id="Hill-Group" serif:id="Hill Group">
    <g id="Hill">
      <path fill="#6c6f7c" d="M1.5 408.3s-2.6-137.9 0-137.9c502 0 508 137.9 508 137.9H1.5z"/>
      <path fill="#474b5b" d="M221.2 408.3S205.7 394 195 380.7c-6.8-8.7-31.4-8.4-36.9-10.6-16.8-7-17.3-11.8-23.8-23.6-1.7-3.2 0-34.7 0-34.7h19.8s-1.7 23 12.3 29.8C183 349.8 217 352 238 361.3c23.7 10.5 53.6 47 53.6 47h-70.3z"/>
      <path fill="#1c1e24" fill-opacity=".8" d="M73.4 286h-72v76L293 311.9 73.4 285.9z"/>
    </g>
    <g id="House">
      <path fill="#1c1e24" d="M271.1 144.8h11.7v.1l-.3-.1 10.4 56.8v110.2H43.6V201.6l12.6-56.8H271z"/>
      <path d="M43.7 196.1h249.1v21.1H43.7z"/>
      <path fill="#1c1e24" d="M195.1 144.8V99.2H286v55l19.8 47.4h-283l32-56.4v-.4h140.4z"/>
      <path fill="#fbffd6" fill-opacity=".8" d="M277.3 100.3h8.6v54.3l19.8 47H297l-19.4-46.2-.3-55z"/>
      <path fill-opacity=".6" d="M54.9 144.8l-32.3 56.8 201.6-56.8H55z"/>
      <g id="Window-3" serif:id="Window 3">
        <path fill="#fbffd6" d="M244.1 232.7h27v49h-27z"/>
        <path fill="none" stroke="#1c1e24" stroke-width="6" d="M257.6 232.7v49M244.1 256.8h27"/>
      </g>
      <g id="Window-2" serif:id="Window 2">
        <path fill="#fbffd6" d="M196.5 232.7h27v49h-27z"/>
        <path fill="none" stroke="#1c1e24" stroke-width="6" d="M210 232.7v49M196.5 256.8h27"/>
      </g>
      <g id="Window-1" serif:id="Window 1">
        <path fill="#fbffd6" d="M67.5 232.7h27v49h-27z"/>
        <path fill="none" stroke="#1c1e24" stroke-width="6" d="M81 232.7v49M67.5 256.8h27"/>
      </g>
      <path id="Door" fill-opacity=".6" d="M168 257.2a24.3 24.3 0 0 0-23.7-24.7c-13.2 0-23.8 11-23.8 24.7v54.6H168v-54.6z"/>
      <path d="M195.1 111.8V96.3H286v15.5a322.8 322.8 0 0 1-90.8.1z"/>
      <path fill="#1c1e24" d="M240.5.2l55.6 99a324.6 324.6 0 0 1-111.1 0l55.5-99z"/>
      <path fill="#fbffd6" fill-opacity=".8" d="M240.5.2l55.6 99-9.4 1.4-50.8-92.2 4.6-8.2z"/>
      <path d="M258 70.8c0-11-7.8-19.8-17.5-19.8C231 51 223 60 223 70.8l2 20h31l2-20z"/>
      <g>
        <ellipse cx="240.5" cy="68.8" fill="#fbffd6" rx="14" ry="13.5"/>
        <path fill="none" stroke="#1c1e24" stroke-width="6" d="M240.5 55.2v27M226.5 68.8h28"/>
      </g>
    </g>
  </g>
</svg>
