<?xml version="1.0" encoding="UTF-8" standalone="no"?><!DOCTYPE svg PUBLIC "-//W3C//DTD SVG 1.1//EN" "http://www.w3.org/Graphics/SVG/1.1/DTD/svg11.dtd"><svg width="100%" height="100%" viewBox="0 0 284 312" version="1.1" xmlns="http://www.w3.org/2000/svg" xmlns:xlink="http://www.w3.org/1999/xlink" xml:space="preserve" xmlns:serif="http://www.serif.com/" style="fill-rule:evenodd;clip-rule:evenodd;stroke-linejoin:round;stroke-miterlimit:1.5;"><g id="House"><path d="M249.15,144.766c0,0 11.608,0 11.608,0l0,0.175l-0.208,-0.175l10.32,56.857l-0.039,110.14l-10.821,0l-238.282,0l0,-110.14l12.53,-56.857l214.892,0Z" style="fill:#1c1e24;"/><rect x="21.728" y="196.118" width="249.143" height="21.055"/><path d="M173.137,144.766l0,-45.561l90.793,0l0,54.969l19.771,47.449l-99.029,0l-94.926,0l-89.11,0l32.125,-56.468l0,-0.389l140.376,0Z" style="fill:#1c1e24;"/><path d="M255.336,100.344l8.594,0l0,54.259c0,0 19.771,47.02 19.771,47.02l-8.712,0l-19.433,-46.206l-0.22,-55.073Z" style="fill:#fbffd6;fill-opacity:0.8;"/><path d="M32.867,144.766l-32.231,56.857l201.572,-56.857l-169.341,0Z" style="fill-opacity:0.6;"/><g id="Window-3" serif:id="Window 3"><rect x="222.114" y="232.721" width="27.036" height="48.984" style="fill:#fbffd6;"/><path d="M235.632,232.721l0,48.984" style="fill:none;stroke:#1c1e24;stroke-width:6px;"/><path d="M222.114,256.834l27.036,0" style="fill:none;stroke:#1c1e24;stroke-width:6px;"/></g><g id="Window-2" serif:id="Window 2"><rect x="174.478" y="232.721" width="27.036" height="48.984" style="fill:#fbffd6;"/><path d="M187.995,232.721l0,48.984" style="fill:none;stroke:#1c1e24;stroke-width:6px;"/><path d="M174.478,256.834l27.035,0" style="fill:none;stroke:#1c1e24;stroke-width:6px;"/></g><g id="Window-1" serif:id="Window 1"><rect x="45.451" y="232.721" width="27.036" height="48.984" style="fill:#fbffd6;"/><path d="M58.968,232.721l0,48.984" style="fill:none;stroke:#1c1e24;stroke-width:6px;"/><path d="M45.451,256.834l27.035,0" style="fill:none;stroke:#1c1e24;stroke-width:6px;"/></g><path id="Door" d="M146.091,257.24c0,-13.664 -10.664,-24.742 -23.818,-24.742c-13.155,0 -23.819,11.078 -23.819,24.742l0,54.523l47.637,0l0,-54.523Z" style="fill-opacity:0.6;"/><g><path d="M173.137,111.85l0,-15.688l90.793,0l0,15.58c-31.238,4.3 -61.507,4.362 -90.793,0.108Z"/><path d="M218.534,0.151l55.545,99.054c-38.477,6.36 -75.517,6.404 -111.09,0l55.545,-99.054Z" style="fill:#1c1e24;"/><path d="M218.534,0.151l55.545,99.054c-0.948,0.157 -9.385,1.393 -9.385,1.393l-50.802,-92.171l4.642,-8.276Z" style="fill:#fbffd6;fill-opacity:0.79638;"/><path d="M236.032,70.83c0,-10.938 -7.834,-19.805 -17.498,-19.805c-9.665,0 -17.499,8.867 -17.499,19.805l2,19.904l30.997,0l2,-19.904Z"/></g><g><ellipse cx="218.534" cy="68.756" rx="14.041" ry="13.528" style="fill:#fbffd6;"/><path d="M218.534,55.228l0,27.056" style="fill:none;stroke:#1c1e24;stroke-width:6px;"/><path d="M204.493,68.756l28.081,0" style="fill:none;stroke:#1c1e24;stroke-width:6px;"/></g></g></svg>