<?xml version="1.0" encoding="UTF-8" standalone="no"?><!DOCTYPE svg PUBLIC "-//W3C//DTD SVG 1.1//EN" "http://www.w3.org/Graphics/SVG/1.1/DTD/svg11.dtd"><svg width="100%" height="100%" viewBox="0 0 325 207" version="1.1" xmlns="http://www.w3.org/2000/svg" xmlns:xlink="http://www.w3.org/1999/xlink" xml:space="preserve" xmlns:serif="http://www.serif.com/" style="fill-rule:evenodd;clip-rule:evenodd;stroke-linejoin:round;stroke-miterlimit:1.41421;"><g id="Logo-Group" serif:id="Logo Group"><g id="Logo-Symbol-Dark" serif:id="Logo Symbol Dark"><path d="M200.819,0.512l97.693,0l0,27.722l-67.879,0l0,25.414l59.324,0l0,27.722l-59.324,0l0,27.724l67.879,0l0,27.722l-97.693,0l0,-136.304Z" style="fill:url(#_Linear1);fill-rule:nonzero;"/><path d="M142.229,136.817l-30.033,0l0,-64.688l-55.447,64.688l-41.97,0l65.843,-72.967l-60.645,-63.338l39.275,0l52.944,56.6l0,-56.6l30.033,0l0,136.305Z" style="fill:url(#_Linear2);fill-rule:nonzero;"/><path d="M112.231,0.512l30.034,0l0,50.824l58.334,0l0,-50.824l30.034,0l0,136.305l-30.034,0l0,-58.913l-58.334,0l0,58.913l-30.034,0l0,-136.305Z" style="fill:url(#_Linear3);fill-rule:nonzero;"/></g><g id="Long-Logo-White" serif:id="Long Logo White"><path d="M0.412,171.868l6.174,0l0,14.952l6.762,-14.952l5.922,0l-6.51,15.162l7.182,18.858l-6.174,0l-5.67,-15.456l-1.512,2.562l0,12.894l-6.174,0l0,-34.02Z" style="fill:#fff;fill-rule:nonzero;"/><path d="M22.756,171.868l14.28,0l0,4.368l-8.106,0l0,9.786l6.384,0l0,4.326l-6.384,0l0,11.298l8.19,0l0,4.242l-14.364,0l0,-34.02Z" style="fill:#fff;fill-rule:nonzero;"/><path d="M40.732,171.868l4.326,0l8.274,19.404l0,-19.404l5.124,0l0,34.02l-4.116,0l-8.316,-20.328l0,20.328l-5.292,0l0,-34.02Z" style="fill:#fff;fill-rule:nonzero;"/><path d="M67.024,176.446l-5.418,0l0,-4.578l16.926,0l0,4.578l-5.292,0l0,29.442l-6.216,0l0,-29.442Z" style="fill:#fff;fill-rule:nonzero;"/><path d="M91.93,171.868l6.174,0l0,14.196l6.93,0l0,-14.196l6.216,0l0,34.02l-6.216,0l0,-15.372l-6.93,0l0,15.372l-6.174,0l0,-34.02Z" style="fill:#fff;fill-rule:nonzero;"/><path d="M121.54,171.868l6.636,0l6.804,34.02l-5.754,0l-1.344,-7.854l-5.922,0l-1.386,7.854l-5.838,0l6.804,-34.02Zm5.67,22.218l-2.31,-14.28l-2.31,14.28l4.62,0Z" style="fill:#fff;fill-rule:nonzero;"/><path d="M147.202,206.35c-3.528,0 -6.027,-0.987 -7.497,-2.961c-1.47,-1.974 -2.205,-4.767 -2.205,-8.379l0,-12.138c0,-3.724 0.728,-6.552 2.184,-8.484c1.456,-1.932 3.962,-2.898 7.518,-2.898c3.332,0 5.698,0.84 7.098,2.52c1.4,1.68 2.1,4.102 2.1,7.266l0,2.856l-5.964,0l0,-2.94c0,-1.204 -0.056,-2.149 -0.168,-2.835c-0.112,-0.686 -0.399,-1.246 -0.861,-1.68c-0.462,-0.434 -1.183,-0.651 -2.163,-0.651c-1.008,0 -1.764,0.231 -2.268,0.693c-0.504,0.462 -0.833,1.078 -0.987,1.848c-0.154,0.77 -0.231,1.771 -0.231,3.003l0,14.742c0,1.932 0.252,3.325 0.756,4.179c0.504,0.854 1.414,1.281 2.73,1.281c0.952,0 1.659,-0.224 2.121,-0.672c0.462,-0.448 0.756,-1.043 0.882,-1.785c0.126,-0.742 0.189,-1.729 0.189,-2.961l0,-3.066l5.964,0l0,2.73c0,3.276 -0.686,5.817 -2.058,7.623c-1.372,1.806 -3.752,2.709 -7.14,2.709Z" style="fill:#fff;fill-rule:nonzero;"/><path d="M160.726,171.868l6.174,0l0,14.952l6.762,-14.952l5.922,0l-6.51,15.162l7.182,18.858l-6.174,0l-5.67,-15.456l-1.512,2.562l0,12.894l-6.174,0l0,-34.02Z" style="fill:#fff;fill-rule:nonzero;"/><path d="M193.276,171.868l14.28,0l0,4.368l-8.106,0l0,9.786l6.384,0l0,4.326l-6.384,0l0,11.298l8.19,0l0,4.242l-14.364,0l0,-34.02Z" style="fill:#fff;fill-rule:nonzero;"/><path d="M211.252,171.868l4.326,0l8.274,19.404l0,-19.404l5.124,0l0,34.02l-4.116,0l-8.316,-20.328l0,20.328l-5.292,0l0,-34.02Z" style="fill:#fff;fill-rule:nonzero;"/><path d="M243.424,206.35c-3.528,0 -6.048,-0.945 -7.56,-2.835c-1.512,-1.89 -2.268,-4.655 -2.268,-8.295l0,-12.768c0,-3.612 0.756,-6.342 2.268,-8.19c1.512,-1.848 4.032,-2.772 7.56,-2.772c3.5,0 6.006,0.924 7.518,2.772c1.512,1.848 2.268,4.578 2.268,8.19l0,12.768c0,3.612 -0.763,6.37 -2.289,8.274c-1.526,1.904 -4.025,2.856 -7.497,2.856Zm0,-4.578c1.372,0 2.296,-0.434 2.772,-1.302c0.476,-0.868 0.714,-2.128 0.714,-3.78l0,-15.666c0,-1.652 -0.231,-2.898 -0.693,-3.738c-0.462,-0.84 -1.393,-1.26 -2.793,-1.26c-1.4,0 -2.338,0.427 -2.814,1.281c-0.476,0.854 -0.714,2.093 -0.714,3.717l0,15.666c0,1.652 0.238,2.912 0.714,3.78c0.476,0.868 1.414,1.302 2.814,1.302Z" style="fill:#fff;fill-rule:nonzero;"/><path d="M267.112,206.35c-2.464,0 -4.396,-0.448 -5.796,-1.344c-1.4,-0.896 -2.38,-2.17 -2.94,-3.822c-0.56,-1.652 -0.84,-3.752 -0.84,-6.3l0,-23.016l6.048,0l0,23.73c0,1.96 0.231,3.472 0.693,4.536c0.462,1.064 1.407,1.596 2.835,1.596c1.456,0 2.415,-0.532 2.877,-1.596c0.462,-1.064 0.693,-2.576 0.693,-4.536l0,-23.73l6.006,0l0,23.016c0,2.52 -0.28,4.613 -0.84,6.279c-0.56,1.666 -1.54,2.947 -2.94,3.843c-1.4,0.896 -3.332,1.344 -5.796,1.344Z" style="fill:#fff;fill-rule:nonzero;"/><path d="M290.086,206.35c-3.22,0 -5.537,-1.001 -6.951,-3.003c-1.414,-2.002 -2.121,-4.893 -2.121,-8.673l0,-11.424c0,-3.892 0.728,-6.825 2.184,-8.799c1.456,-1.974 3.962,-2.961 7.518,-2.961c3.36,0 5.768,0.833 7.224,2.499c1.456,1.666 2.184,4.137 2.184,7.413l0,1.764l-5.922,0l0,-1.932c0,-1.232 -0.077,-2.212 -0.231,-2.94c-0.154,-0.728 -0.476,-1.288 -0.966,-1.68c-0.49,-0.392 -1.225,-0.588 -2.205,-0.588c-1.036,0 -1.806,0.252 -2.31,0.756c-0.504,0.504 -0.833,1.148 -0.987,1.932c-0.154,0.784 -0.231,1.806 -0.231,3.066l0,14.238c0,1.932 0.259,3.374 0.777,4.326c0.518,0.952 1.491,1.428 2.919,1.428c1.4,0 2.373,-0.504 2.919,-1.512c0.546,-1.008 0.819,-2.52 0.819,-4.536l0,-3.192l-3.654,0l0,-3.906l9.24,0l0,17.262l-4.032,0l-0.42,-3.318c-1.064,2.52 -2.982,3.78 -5.754,3.78Z" style="fill:#fff;fill-rule:nonzero;"/><path d="M305.122,171.868l6.174,0l0,14.196l6.93,0l0,-14.196l6.216,0l0,34.02l-6.216,0l0,-15.372l-6.93,0l0,15.372l-6.174,0l0,-34.02Z" style="fill:#fff;fill-rule:nonzero;"/></g></g><defs><linearGradient id="_Linear1" x1="0" y1="0" x2="1" y2="0" gradientUnits="userSpaceOnUse" gradientTransform="matrix(8.34622e-15,-136.304,136.304,8.34622e-15,171.524,136.816)"><stop offset="0" style="stop-color:#fff;stop-opacity:1"/><stop offset="0.28" style="stop-color:#fff;stop-opacity:1"/><stop offset="0.3" style="stop-color:#ff7e58;stop-opacity:1"/><stop offset="0.73" style="stop-color:#ff7e58;stop-opacity:1"/><stop offset="0.75" style="stop-color:#ecff58;stop-opacity:1"/><stop offset="1" style="stop-color:#ecff58;stop-opacity:1"/></linearGradient><linearGradient id="_Linear2" x1="0" y1="0" x2="1" y2="0" gradientUnits="userSpaceOnUse" gradientTransform="matrix(8.34622e-15,-136.304,136.304,8.34622e-15,171.524,136.816)"><stop offset="0" style="stop-color:#fff;stop-opacity:1"/><stop offset="0.28" style="stop-color:#fff;stop-opacity:1"/><stop offset="0.3" style="stop-color:#ff7e58;stop-opacity:1"/><stop offset="0.73" style="stop-color:#ff7e58;stop-opacity:1"/><stop offset="0.75" style="stop-color:#ecff58;stop-opacity:1"/><stop offset="1" style="stop-color:#ecff58;stop-opacity:1"/></linearGradient><linearGradient id="_Linear3" x1="0" y1="0" x2="1" y2="0" gradientUnits="userSpaceOnUse" gradientTransform="matrix(8.34622e-15,-136.304,136.304,8.34622e-15,171.524,136.816)"><stop offset="0" style="stop-color:#fff;stop-opacity:1"/><stop offset="0.28" style="stop-color:#fff;stop-opacity:1"/><stop offset="0.3" style="stop-color:#ff7e58;stop-opacity:1"/><stop offset="0.73" style="stop-color:#ff7e58;stop-opacity:1"/><stop offset="0.75" style="stop-color:#ecff58;stop-opacity:1"/><stop offset="1" style="stop-color:#ecff58;stop-opacity:1"/></linearGradient></defs></svg>