<?xml version="1.0" encoding="UTF-8" standalone="no"?><!DOCTYPE svg PUBLIC "-//W3C//DTD SVG 1.1//EN" "http://www.w3.org/Graphics/SVG/1.1/DTD/svg11.dtd"><svg width="100%" height="100%" viewBox="0 0 452 443" version="1.1" xmlns="http://www.w3.org/2000/svg" xmlns:xlink="http://www.w3.org/1999/xlink" xml:space="preserve" xmlns:serif="http://www.serif.com/" style="fill-rule:evenodd;clip-rule:evenodd;stroke-linejoin:round;stroke-miterlimit:1.5;"><g id="House"><path d="M367.306,201.205c0,0 16.151,0 16.151,0l0,0.243l-0.29,-0.243l14.359,79.107l-0.055,153.238l-15.055,0c0,0 -331.527,0 -331.527,0l0,-153.238l17.435,-79.107l298.982,0Z" style="fill:#1c1e24;"/><rect x="50.889" y="272.651" width="346.636" height="29.294"/><path d="M261.548,201.205l0,-63.389l126.322,0l0,76.479l27.508,66.017l-137.781,0l-132.072,0l-123.981,0l44.697,-78.566l0,-0.541l195.307,0Z" style="fill:#1c1e24;"/><path d="M375.912,139.4l11.958,0l0,75.492c0,0 27.508,65.42 27.508,65.42l-12.121,0l-27.039,-64.288l-0.306,-76.624Z" style="fill:#fbffd6;fill-opacity:0.8;"/><path d="M66.388,201.205l-44.844,79.107l280.451,-79.107l-235.607,0Z" style="fill-opacity:0.6;"/><path id="Door" d="M223.918,357.692c0,-19.011 -14.837,-34.423 -33.139,-34.423c-18.302,0 -33.139,15.412 -33.139,34.423l0,75.858l66.278,0l0,-75.858Z" style="fill-opacity:0.6;"/><g id="Window-3" serif:id="Window 3"><rect x="329.691" y="323.579" width="37.615" height="68.152" style="fill:#74ff58;"/><path d="M348.498,323.579l0,68.152" style="fill:none;stroke:#1c1e24;stroke-width:6px;"/><path d="M329.691,357.128l37.615,0" style="fill:none;stroke:#1c1e24;stroke-width:6px;"/><g id="Flare-Hor"><g opacity="0.6"><path d="M451.201,328.978l-23.806,-57.657l-74.723,52.258l0,29.902l14.634,0l83.895,-24.503Z" style="fill:url(#_Linear1);"/><path d="M245.795,328.978l23.807,-57.657l74.722,52.258l0,29.902l-14.633,0l-83.896,-24.503Z" style="fill:url(#_Linear2);"/><path d="M451.201,385.277l-23.806,57.657l-74.723,-52.257l0,-29.903l14.634,0l83.895,24.503Z" style="fill:url(#_Linear3);"/><path d="M245.795,385.277l23.807,57.657l74.722,-52.257l0,-29.903l-14.633,0l-83.896,24.503Z" style="fill:url(#_Linear4);"/></g></g></g><g id="Window-2" serif:id="Window 2"><rect x="263.413" y="323.579" width="37.615" height="68.152" style="fill:#ff58ab;"/><path d="M282.221,323.579l0,68.152" style="fill:none;stroke:#1c1e24;stroke-width:6px;"/><path d="M263.413,357.128l37.615,0" style="fill:none;stroke:#1c1e24;stroke-width:6px;"/><g id="Flare-Hor1" serif:id="Flare-Hor"><g opacity="0.6"><path d="M384.924,328.978l-23.807,-57.657l-74.722,52.258l0,29.902l14.633,0l83.896,-24.503Z" style="fill:url(#_Linear5);"/><path d="M179.518,328.978l23.806,-57.657l74.723,52.258l0,29.902l-14.634,0l-83.895,-24.503Z" style="fill:url(#_Linear6);"/><path d="M384.924,385.277l-23.807,57.657l-74.722,-52.257l0,-29.903l14.633,0l83.896,24.503Z" style="fill:url(#_Linear7);"/><path d="M179.518,385.277l23.806,57.657l74.723,-52.257l0,-29.903l-14.634,0l-83.895,24.503Z" style="fill:url(#_Linear8);"/></g></g></g><g id="Window-1" serif:id="Window 1"><rect x="83.895" y="323.579" width="37.615" height="68.152" style="fill:#ff7e58;"/><path d="M102.703,323.579l0,68.152" style="fill:none;stroke:#1c1e24;stroke-width:6px;"/><path d="M83.895,357.128l37.616,0" style="fill:none;stroke:#1c1e24;stroke-width:6px;"/><g id="Flare-Hor2" serif:id="Flare-Hor"><g opacity="0.6"><path d="M205.406,328.978l-23.806,-57.657l-74.723,52.258l0,29.902l14.634,0l83.895,-24.503Z" style="fill:url(#_Linear9);"/><path d="M0,328.978l23.806,-57.657l74.723,52.258l0,29.902l-14.634,0l-83.895,-24.503Z" style="fill:url(#_Linear10);"/><path d="M205.406,385.277l-23.806,57.657l-74.723,-52.257l0,-29.903l14.634,0l83.895,24.503Z" style="fill:url(#_Linear11);"/><path d="M0,385.277l23.806,57.657l74.723,-52.257l0,-29.903l-14.634,0l-83.895,24.503Z" style="fill:url(#_Linear12);"/></g></g></g><g><path d="M261.548,155.409l0,-21.828l126.322,0l0,21.677c-43.462,5.983 -85.576,6.069 -126.322,0.151Z"/><path d="M324.709,0l77.281,137.816c-53.534,8.848 -105.069,8.909 -154.562,0l77.281,-137.816Z" style="fill:#1c1e24;"/><path d="M324.709,0l77.281,137.816c-1.319,0.218 -13.058,1.937 -13.058,1.937l-70.681,-128.238l6.458,-11.515Z" style="fill:#fbffd6;fill-opacity:0.79638;"/><path d="M349.055,98.337c0,-15.219 -10.9,-27.556 -24.346,-27.556c-13.446,0 -24.346,12.337 -24.346,27.556l2.782,27.692l43.128,0l2.782,-27.692Z"/></g><g><ellipse cx="324.709" cy="95.451" rx="19.535" ry="18.822" style="fill:#fbffd6;"/><path d="M324.709,76.629l0,37.644" style="fill:none;stroke:#1c1e24;stroke-width:6px;"/><path d="M305.174,95.451l39.07,0" style="fill:none;stroke:#1c1e24;stroke-width:6px;"/></g></g><defs><linearGradient id="_Linear1" x1="0" y1="0" x2="1" y2="0" gradientUnits="userSpaceOnUse" gradientTransform="matrix(85.5011,-53.4259,53.4259,85.5011,352.672,353.481)"><stop offset="0" style="stop-color:#74ff58;stop-opacity:1"/><stop offset="1" style="stop-color:#ff58ab;stop-opacity:0"/></linearGradient><linearGradient id="_Linear2" x1="0" y1="0" x2="1" y2="0" gradientUnits="userSpaceOnUse" gradientTransform="matrix(-85.5011,-53.4259,-53.4259,85.5011,344.324,353.481)"><stop offset="0" style="stop-color:#74ff58;stop-opacity:1"/><stop offset="1" style="stop-color:#ff58ab;stop-opacity:0"/></linearGradient><linearGradient id="_Linear3" x1="0" y1="0" x2="1" y2="0" gradientUnits="userSpaceOnUse" gradientTransform="matrix(85.5011,53.4259,53.4259,-85.5011,352.672,360.774)"><stop offset="0" style="stop-color:#74ff58;stop-opacity:1"/><stop offset="1" style="stop-color:#ff58ab;stop-opacity:0"/></linearGradient><linearGradient id="_Linear4" x1="0" y1="0" x2="1" y2="0" gradientUnits="userSpaceOnUse" gradientTransform="matrix(-85.5011,53.4259,-53.4259,-85.5011,344.324,360.774)"><stop offset="0" style="stop-color:#74ff58;stop-opacity:1"/><stop offset="1" style="stop-color:#ff58ab;stop-opacity:0"/></linearGradient><linearGradient id="_Linear5" x1="0" y1="0" x2="1" y2="0" gradientUnits="userSpaceOnUse" gradientTransform="matrix(85.5011,-53.4259,53.4259,85.5011,286.395,353.481)"><stop offset="0" style="stop-color:#ff58ab;stop-opacity:1"/><stop offset="1" style="stop-color:#ff58ab;stop-opacity:0"/></linearGradient><linearGradient id="_Linear6" x1="0" y1="0" x2="1" y2="0" gradientUnits="userSpaceOnUse" gradientTransform="matrix(-85.5011,-53.4259,-53.4259,85.5011,278.047,353.481)"><stop offset="0" style="stop-color:#ff58ab;stop-opacity:1"/><stop offset="1" style="stop-color:#ff58ab;stop-opacity:0"/></linearGradient><linearGradient id="_Linear7" x1="0" y1="0" x2="1" y2="0" gradientUnits="userSpaceOnUse" gradientTransform="matrix(85.5011,53.4259,53.4259,-85.5011,286.395,360.774)"><stop offset="0" style="stop-color:#ff58ab;stop-opacity:1"/><stop offset="1" style="stop-color:#ff58ab;stop-opacity:0"/></linearGradient><linearGradient id="_Linear8" x1="0" y1="0" x2="1" y2="0" gradientUnits="userSpaceOnUse" gradientTransform="matrix(-85.5011,53.4259,-53.4259,-85.5011,278.047,360.774)"><stop offset="0" style="stop-color:#ff58ab;stop-opacity:1"/><stop offset="1" style="stop-color:#ff58ab;stop-opacity:0"/></linearGradient><linearGradient id="_Linear9" x1="0" y1="0" x2="1" y2="0" gradientUnits="userSpaceOnUse" gradientTransform="matrix(85.5011,-53.4259,53.4259,85.5011,106.877,353.481)"><stop offset="0" style="stop-color:#ff7e58;stop-opacity:1"/><stop offset="1" style="stop-color:#ff58ab;stop-opacity:0"/></linearGradient><linearGradient id="_Linear10" x1="0" y1="0" x2="1" y2="0" gradientUnits="userSpaceOnUse" gradientTransform="matrix(-85.5011,-53.4259,-53.4259,85.5011,98.5291,353.481)"><stop offset="0" style="stop-color:#ff7e58;stop-opacity:1"/><stop offset="1" style="stop-color:#ff58ab;stop-opacity:0"/></linearGradient><linearGradient id="_Linear11" x1="0" y1="0" x2="1" y2="0" gradientUnits="userSpaceOnUse" gradientTransform="matrix(85.5011,53.4259,53.4259,-85.5011,106.877,360.774)"><stop offset="0" style="stop-color:#ff7e58;stop-opacity:1"/><stop offset="1" style="stop-color:#ff58ab;stop-opacity:0"/></linearGradient><linearGradient id="_Linear12" x1="0" y1="0" x2="1" y2="0" gradientUnits="userSpaceOnUse" gradientTransform="matrix(-85.5011,53.4259,-53.4259,-85.5011,98.5291,360.774)"><stop offset="0" style="stop-color:#ff7e58;stop-opacity:1"/><stop offset="1" style="stop-color:#ff58ab;stop-opacity:0"/></linearGradient></defs></svg>