<?xml version="1.0" encoding="UTF-8" standalone="no"?><!DOCTYPE svg PUBLIC "-//W3C//DTD SVG 1.1//EN" "http://www.w3.org/Graphics/SVG/1.1/DTD/svg11.dtd"><svg width="100%" height="100%" viewBox="0 0 873 354" version="1.1" xmlns="http://www.w3.org/2000/svg" xmlns:xlink="http://www.w3.org/1999/xlink" xml:space="preserve" xmlns:serif="http://www.serif.com/" style="fill-rule:evenodd;clip-rule:evenodd;stroke-linejoin:round;stroke-miterlimit:1.41421;"><g><g><path d="M774.619,28.984l-63.014,125.111l126.027,0l-63.013,-125.111Z"/><path d="M774.619,91.54l-71.682,142.321l143.363,0l-71.681,-142.321Z"/><path d="M774.619,136.722l-97.85,194.278l195.7,0l-97.85,-194.278Z"/></g><g><path d="M427.764,126.125l-108.224,214.875l216.448,0l-108.224,-214.875Z"/><path d="M427.764,0.978l-69.694,138.375l139.389,0l-69.695,-138.375Z"/><path d="M427.764,70.165l-79.281,157.411l158.563,0l-79.282,-157.411Z"/></g><g><g opacity="0.6"><path d="M659.749,154.949l-41.508,82.411l83.015,0l-41.507,-82.411Z"/><path d="M659.749,196.154l-47.217,93.748l94.434,0l-47.217,-93.748Z"/><path d="M659.749,225.916l-64.455,127.972l128.909,0l-64.454,-127.972Z"/></g></g><g><g opacity="0.6"><path d="M135.549,212.789l-29.439,58.451l58.879,0l-29.44,-58.451Z"/><path d="M135.549,242.015l-33.489,66.491l66.978,0l-33.489,-66.491Z"/><path d="M135.549,263.123l-45.714,90.765l91.429,0l-45.715,-90.765Z"/></g></g><g><g opacity="0.8"><path d="M559.612,83.048l-49.962,125.112l99.924,0l-49.962,-125.112Z"/><path d="M559.612,129.082l-56.834,142.322l113.669,0l-56.835,-142.322Z"/><path d="M559.612,194.385l-77.582,154.038l155.165,0l-77.583,-154.038Z"/></g></g><g><g opacity="0.6"><path d="M313.268,98.843l-41.507,82.412l83.015,0l-41.508,-82.412Z"/><path d="M313.268,122.937l-47.217,93.748l94.434,0l-47.217,-93.748Z"/><path d="M313.268,140.049l-64.454,127.971l128.909,0l-64.455,-127.971Z"/><path d="M313.268,166.12l-83.043,164.88l166.087,0l-83.044,-164.88Z"/></g></g><g><g opacity="0.8"><path d="M213.132,65.626l-49.962,125.111l99.924,0l-49.962,-125.111Z"/><path d="M213.132,111.66l-56.834,142.321l113.669,0l-56.835,-142.321Z"/><path d="M213.132,176.962l-77.583,154.038l155.166,0l-77.583,-154.038Z"/></g></g><g><g opacity="0.8"><path d="M68.034,137.858l-43.478,90.571l86.957,0l-43.479,-90.571Z"/><path d="M68.034,171.183l-49.459,103.029l98.919,0l-49.46,-103.029Z"/><path d="M68.034,218.457l-67.514,111.511l135.029,0l-67.515,-111.511Z"/></g></g></g></svg>